<svg xmlns="http://www.w3.org/2000/svg" viewBox="0 0 360 394" role="img" aria-label="Stylized lion head with cap logo">
  <title>Stylized lion head with cap logo</title>
  <path d="M 194 114 L 211 124 L 222 126 L 236 125 L 257 139 L 245 123 L 245 118 L 249 113 L 240 117 L 230 109 L 210 107 Z M 185 12 L 172 13 L 169 18 L 157 23 L 144 35 L 157 37 L 142 38 L 137 56 L 136 72 L 134 66 L 136 40 L 142 29 L 150 23 L 127 33 L 117 40 L 104 53 L 96 68 L 95 64 L 101 52 L 95 58 L 88 72 L 86 101 L 114 95 L 119 96 L 53 115 L 29 125 L 16 133 L 12 138 L 12 144 L 18 150 L 34 155 L 47 156 L 82 125 L 123 94 L 135 91 L 151 91 L 160 96 L 140 99 L 131 107 L 131 117 L 142 127 L 140 129 L 131 128 L 120 120 L 117 114 L 118 102 L 74 136 L 54 157 L 69 149 L 84 144 L 87 145 L 65 158 L 47 173 L 33 192 L 27 212 L 28 221 L 57 191 L 74 181 L 52 205 L 43 222 L 39 236 L 39 264 L 43 276 L 49 283 L 54 276 L 55 253 L 62 228 L 70 213 L 86 195 L 110 178 L 137 164 L 124 178 L 89 202 L 73 218 L 61 242 L 59 269 L 85 247 L 97 231 L 119 210 L 141 196 L 154 190 L 157 191 L 127 211 L 104 232 L 90 254 L 86 269 L 88 295 L 97 315 L 109 289 L 130 261 L 157 236 L 172 228 L 149 253 L 139 269 L 133 286 L 133 303 L 137 314 L 152 331 L 160 307 L 162 311 L 163 338 L 159 358 L 170 344 L 181 323 L 194 281 L 194 309 L 187 333 L 178 350 L 155 375 L 146 381 L 160 380 L 193 372 L 231 356 L 271 330 L 286 316 L 300 298 L 302 303 L 300 317 L 314 301 L 328 275 L 334 252 L 335 229 L 344 244 L 347 230 L 345 194 L 333 162 L 320 143 L 306 129 L 299 125 L 292 110 L 294 101 L 281 91 L 261 83 L 269 82 L 270 78 L 271 84 L 284 89 L 281 64 L 274 50 L 257 35 L 234 23 L 214 17 L 191 16 Z M 301 196 L 313 212 L 313 227 L 305 244 L 294 252 L 296 233 L 291 243 L 284 250 L 269 258 L 268 256 L 275 242 L 275 235 L 266 246 L 257 252 L 253 252 L 259 241 L 260 231 L 258 222 L 252 215 L 252 212 L 260 210 L 284 196 Z M 318 154 L 322 167 L 322 179 L 314 200 L 300 184 L 303 165 L 314 155 Z M 157 121 L 168 110 L 181 103 L 173 102 L 191 91 L 203 87 L 227 85 L 236 87 L 249 95 L 248 87 L 262 91 L 279 101 L 289 112 L 288 115 L 280 117 L 273 115 L 302 132 L 315 145 L 278 145 L 274 153 L 282 160 L 294 166 L 291 183 L 268 197 L 241 205 L 237 204 L 252 189 L 227 198 L 224 197 L 227 192 L 241 179 L 231 180 L 221 185 L 220 183 L 226 173 L 242 159 L 213 158 L 195 152 L 177 137 L 172 122 L 158 123 Z M 209 59 L 217 52 L 237 51 L 253 56 L 260 62 L 260 67 L 246 64 L 221 64 L 209 61 Z M 257 47 L 227 46 L 213 50 L 208 54 L 205 61 L 207 81 L 198 81 L 202 79 L 201 58 L 209 49 L 221 44 L 236 42 L 236 38 L 240 43 Z" fill="#2D032F" fill-rule="evenodd"/>
</svg>
